<svg width="32" height="32" viewBox="0 0 32 32" fill="none" xmlns="http://www.w3.org/2000/svg">
<rect width="32" height="32" fill="white"/>
<path d="M31.9995 4L31.9995 28.7004L27.4515 28.7004C25.8417 24.4188 21.9416 17.1238 16.0023 11.7615C15.3651 11.1899 14.7079 10.6381 14.0276 10.1183L14.023 10.1138C11.0172 7.80452 7.56194 6.03944 3.68191 5.33981C2.49527 5.12794 1.27016 5.0121 0.00195314 5.0121L0.00195312 4C0.071212 4 0.140471 4 0.211269 4.0061L0.269754 4.0061C6.37377 4.05335 11.6051 5.9236 15.9977 8.74193C15.9977 8.74651 16.0023 8.74651 16.0023 8.74651C16.6764 9.18092 17.3351 9.63667 17.9708 10.1183C22.3464 13.3878 25.7816 17.5628 28.318 21.6112L28.318 4.22711L29.1507 4.13718C29.7771 4.06859 30.4081 4.02896 31.0376 4.01829L31.9995 4Z" fill="url(#paint0_linear_492_8)"/>
<path d="M0 4L4.86932e-07 28.7004L4.548 28.7004C6.15788 24.4188 10.0579 17.1238 15.9973 11.7615C16.6344 11.1899 17.2916 10.6381 17.9719 10.1183L17.9765 10.1138C20.9839 7.803 24.4391 6.03944 28.3176 5.33981C29.5058 5.12794 30.7309 5.0121 31.9991 5.0121L31.9991 4C31.9299 4 31.8606 4 31.7898 4.0061L31.7313 4.0061C25.6273 4.05335 20.3944 5.9236 16.0034 8.74346C16.0034 8.74803 15.9988 8.74803 15.9988 8.74803C15.3247 9.18244 14.6659 9.63819 14.0303 10.1199C9.65468 13.3894 6.21944 17.5643 3.68303 21.6127L3.68303 4.22711L2.84885 4.13718C2.22244 4.06859 1.59141 4.02896 0.961928 4.01829L0 4Z" fill="url(#paint1_linear_492_8)"/>
<defs>
<linearGradient id="paint0_linear_492_8" x1="16.0008" y1="27.88" x2="16.0008" y2="7.97705" gradientUnits="userSpaceOnUse">
<stop offset="0.0015501" stop-color="#006EF5"/>
<stop offset="0.2537" stop-color="#007EEE"/>
<stop offset="0.7444" stop-color="#00A8DB"/>
<stop offset="1" stop-color="#00C0D0"/>
</linearGradient>
<linearGradient id="paint1_linear_492_8" x1="15.9989" y1="28.2072" x2="15.9989" y2="5.26456" gradientUnits="userSpaceOnUse">
<stop offset="0.0015501" stop-color="#006EF5"/>
<stop offset="0.2221" stop-color="#0072F3"/>
<stop offset="0.4429" stop-color="#007EEE"/>
<stop offset="0.664" stop-color="#0092E5"/>
<stop offset="0.8839" stop-color="#00AED8"/>
<stop offset="1" stop-color="#00C0D0"/>
</linearGradient>
</defs>
</svg>
